<?xml version="1.0" encoding="UTF-8" standalone="no"?>
<!-- Created with Inkscape (http://www.inkscape.org/) -->

<svg
   width="210mm"
   height="297mm"
   viewBox="0 0 210 297"
   version="1.1"
   id="svg1"
   xml:space="preserve"
   inkscape:version="1.3.2 (091e20e, 2023-11-25, custom)"
   sodipodi:docname="logo.svg"
   xmlns:inkscape="http://www.inkscape.org/namespaces/inkscape"
   xmlns:sodipodi="http://sodipodi.sourceforge.net/DTD/sodipodi-0.dtd"
   xmlns="http://www.w3.org/2000/svg"
   xmlns:svg="http://www.w3.org/2000/svg"><sodipodi:namedview
     id="namedview1"
     pagecolor="#ffffff"
     bordercolor="#000000"
     borderopacity="0.25"
     inkscape:showpageshadow="2"
     inkscape:pageopacity="0.0"
     inkscape:pagecheckerboard="0"
     inkscape:deskcolor="#d1d1d1"
     inkscape:document-units="mm"
     inkscape:zoom="0.52347032"
     inkscape:cx="458.47872"
     inkscape:cy="272.22174"
     inkscape:window-width="1920"
     inkscape:window-height="1009"
     inkscape:window-x="-8"
     inkscape:window-y="-8"
     inkscape:window-maximized="1"
     inkscape:current-layer="g12" /><defs
     id="defs1" /><g
     inkscape:label="Layer 1"
     inkscape:groupmode="layer"
     id="layer1"><g
       id="g12"
       transform="matrix(0.73376442,0,0,0.73376442,58.870271,10.664439)"
       inkscape:export-filename="logo.png"
       inkscape:export-xdpi="100"
       inkscape:export-ydpi="100"><path
         style="display:none;fill:#fdfdfd"
         d="M -78.733116,119.01444 V -13.629999 H 63.259926 205.25297 V 119.01444 251.65888 H 63.259926 -78.733116 Z m 154.649,130.92855 c 1.510046,-0.74339 2.934555,-1.83375 4.245157,-3.24935 1.084872,-1.17179 1.971689,-2.24055 1.970704,-2.37501 -9.84e-4,-0.13446 -1.213732,-1.00787 -2.694994,-1.9409 l -2.693206,-1.69643 -1.043294,1.26569 c -3.330504,4.04048 -9.556857,3.65507 -12.139231,-0.75142 -0.744096,-1.2697 -0.986096,-2.21277 -1.106541,-4.31215 -0.214327,-3.73576 0.334045,-5.49143 2.34255,-7.49994 1.869554,-1.86955 3.910365,-2.60805 6.241302,-2.2585 1.689734,0.25339 4.50707,1.91033 5.085311,2.99078 0.21465,0.40108 0.522427,0.72923 0.683949,0.72923 0.590886,0 5.325944,-2.92486 5.325944,-3.28985 0,-0.6901 -1.7779,-2.95332 -3.248234,-4.13492 -2.491249,-2.00202 -4.926497,-2.78784 -8.669143,-2.79741 -6.724395,-0.0172 -11.267574,2.72699 -13.975579,8.44158 -1.049623,2.21498 -1.094541,2.49797 -1.094541,6.89588 0,4.41705 0.04115,4.67298 1.116372,6.94253 1.212086,2.55845 3.372932,5.13666 5.306876,6.33191 2.466711,1.52451 4.960381,2.08768 8.646177,1.95267 2.993145,-0.10964 3.715915,-0.26742 5.700421,-1.24439 z m -52.261117,-8.60277 0.09405,-9.26033 3.213306,5.46797 c 1.767318,3.00738 3.57886,6.1362 4.025648,6.95293 0.446788,0.81672 0.931211,1.41149 1.076496,1.3217 0.145285,-0.0898 1.256836,-1.86927 2.470113,-3.95441 2.280123,-3.9186 5.928703,-10.03924 6.068359,-10.1799 0.04368,-0.044 0.03243,4.1933 -0.02498,9.41619 l -0.104391,9.49618 h 3.367585 3.367585 v -14.82822 -14.82822 l -3.924547,0.0998 -3.924547,0.0997 -3.430358,5.97942 c -1.886696,3.28867 -3.573462,6.02298 -3.748368,6.07624 -0.174906,0.0533 -1.842107,-2.63748 -3.704892,-5.97941 l -3.38688,-6.07625 -4.109647,-0.0994 -4.109647,-0.0994 v 14.82787 14.82786 h 3.345532 3.345531 z m 73.217478,4.40963 0.09843,-4.6743 h 4.033475 c 4.86273,0 7.14416,-0.69779 9.28677,-2.8404 2.23775,-2.23775 2.71067,-3.52707 2.71067,-7.39016 0,-3.76288 -0.39919,-4.86761 -2.58213,-7.14602 -2.29043,-2.39059 -3.88611,-2.73176 -12.776942,-2.73176 h -7.747876 v 14.82945 14.82944 l 3.439583,-0.10097 3.439583,-0.10097 z m 2.106427,-10.60094 -2.028472,-0.10579 v -4.03934 -4.03934 h 3.32842 c 1.83064,0 3.74331,0.15774 4.2504,0.35053 1.25519,0.47722 2.07425,2.50466 1.78664,4.42255 -0.43329,2.88941 -2.13902,3.68251 -7.336988,3.41139 z M -7.0253735,206.69083 c 2.7167065,-0.57569 6.3011529,-2.08493 7.13192063,-3.00292 0.51345808,-0.56736 0.49870781,-0.78377 -0.17640571,-2.58818 -0.80864129,-2.16128 -1.56085472,-2.65785 -3.10663222,-2.05079 -3.3460755,1.31407 -7.5615002,1.78652 -9.9157382,1.11133 -2.493044,-0.71499 -4.25756,-3.66853 -4.25756,-7.12653 v -1.34708 l 8.3784717,-0.005 c 4.6081593,-0.003 8.73565893,-0.10054 9.17222139,-0.21753 0.75397303,-0.20206 0.79374992,-0.38419 0.79374992,-3.63456 0,-9.60167 -3.20112651,-14.41486 -10.40796091,-15.64934 -4.4364891,-0.75994 -9.1305911,0.62126 -12.3006351,3.61935 -3.433133,3.24692 -4.794435,7.35204 -4.802854,14.48342 -0.0096,8.13484 2.165704,12.68901 7.307921,15.29971 3.129934,1.58906 7.876214,2.02068 12.1835015,1.10794 z M -17.255837,183.92541 c 0.270649,-2.98476 1.537584,-5.0479 3.578452,-5.82731 3.49226,-1.33371 6.2053732,1.28634 6.2053732,5.99251 v 1.95161 h -4.9878852 -4.987885 z m 37.999202,22.90722 c 8.22596,-1.33459 12.314149,-7.46485 12.335631,-18.49736 0.01093,-5.61291 -1.668771,-10.98154 -4.24043,-13.5532 -3.293133,-3.29313 -9.615562,-3.77398 -13.899594,-1.05713 -0.89188,0.56561 -1.655774,1.0282 -1.697543,1.02798 -0.04177,-2.2e-4 -0.07594,-3.08279 -0.07594,-6.85016 0,-3.76737 -0.118262,-6.96784 -0.262804,-7.11217 -0.261545,-0.26115 -8.8956442,1.11991 -10.4087226,1.66492 -1.1546443,0.4159 -1.0149543,1.62255 0.2718507,2.34825 0.6747663,0.38054 1.2056006,1.06212 1.4473071,1.85831 0.2602043,0.85712 0.3421113,7.23036 0.2573159,20.02193 l -0.1243905,18.76459 1.0583332,0.33201 c 1.0741549,0.33697 4.4216801,0.96794 6.3499992,1.1969 2.338089,0.27762 6.831252,0.20521 8.98899,-0.14487 z m -6.63964,-6.57967 -0.825649,-0.15707 0.192381,-8.52614 c 0.10581,-4.68938 0.19954,-9.10191 0.208289,-9.80562 0.0149,-1.19835 0.130512,-1.32878 1.823558,-2.0571 3.647984,-1.56932 6.071543,-0.94319 7.540959,1.94823 0.623442,1.22677 0.705556,2.08631 0.705556,7.38557 0,5.96289 -0.0061,6.00921 -1.058334,8.09197 -1.330734,2.63391 -2.619057,3.39363 -5.63894,3.32526 -1.167193,-0.0264 -2.493712,-0.11872 -2.94782,-0.2051 z m 44.480386,6.43937 c 3.246426,-0.68796 6.824616,-2.42713 7.098814,-3.45035 0.274566,-1.0246 0.286025,-5.6885 0.01571,-6.39293 -0.167905,-0.43755 -0.585418,-0.28313 -2.204861,0.81552 -5.596703,3.79685 -12.2772,3.52825 -14.894538,-0.59886 -1.994718,-3.14535 -2.864675,-10.6744 -2.120456,-18.35151 0.613878,-6.33256 1.594671,-9.0122 3.932063,-10.74283 2.001218,-1.48172 5.382782,-1.53902 7.488545,-0.12689 0.913405,0.61253 1.218505,1.15542 1.608552,2.86224 0.71989,3.15019 0.720758,3.15107 3.202108,3.27049 3.0447,0.14653 3.199976,-0.0462 3.175382,-3.94138 -0.03021,-4.7855 -0.30058,-5.87378 -1.692248,-6.81162 -2.107788,-1.42044 -5.006074,-2.28144 -8.362985,-2.48442 -8.1981,-0.49569 -13.928733,2.39395 -16.925591,8.53464 -1.998637,4.0953 -2.347552,5.96556 -2.535863,13.59279 -0.18631,7.54618 0.255808,11.47479 1.730466,15.37672 0.964153,2.55114 4.196264,5.95583 6.804561,7.1679 3.716502,1.72704 9.16609,2.23712 13.680343,1.28049 z m 62.785839,-0.64191 c 0.83065,-0.48679 1.8125,-1.21903 2.18188,-1.6272 0.94322,-1.04225 1.26781,-0.92719 1.26781,0.44941 0,0.65534 0.19844,1.34106 0.44097,1.52383 0.25206,0.18994 2.73235,0.26786 5.78955,0.1819 5.03581,-0.14161 5.35966,-0.19281 5.53819,-0.87553 0.13986,-0.53483 -0.19911,-1.08075 -1.29162,-2.08019 l -1.48126,-1.35507 -0.0134,-14.37542 c -0.007,-7.90648 -0.14971,-14.5959 -0.31625,-14.86537 -0.24793,-0.40115 -1.26465,-0.44515 -5.61022,-0.2428 -2.91908,0.13593 -5.43583,0.32651 -5.59278,0.42351 -0.71951,0.44468 -0.21452,1.95402 1.03756,3.10106 l 1.32291,1.21195 v 10.16988 10.16989 l -1.68537,1.12636 c -3.07224,2.05323 -6.34812,1.88827 -7.59168,-0.3823 -0.52304,-0.955 -0.62353,-2.70118 -0.77711,-13.50362 -0.097,-6.82373 -0.25577,-12.47639 -0.35278,-12.56145 -0.20042,-0.17574 -10.17162,0.40599 -10.84792,0.63287 -0.8363,0.28057 -0.43727,1.54025 0.88195,2.78417 l 1.32292,1.24741 0.17638,11.563 c 0.16486,10.80711 0.22489,11.66678 0.91831,13.15051 1.79999,3.85146 4.84089,5.37371 10.27185,5.142 2.31351,-0.0987 3.20527,-0.30269 4.41015,-1.0088 z m 37.33167,0.1252 c 3.61786,-1.36281 4.12956,-1.84011 4.41408,-4.1173 0.25195,-2.01651 -0.12687,-3.917 -0.75068,-3.76608 -0.18003,0.0436 -1.40611,0.48012 -2.72462,0.97014 -1.74688,0.64922 -3.08858,0.89095 -4.94519,0.89095 -3.14913,0 -4.68688,-0.88753 -5.93715,-3.42667 -0.77163,-1.56707 -0.83148,-2.10759 -0.83148,-7.50944 0,-5.38705 0.0614,-5.94553 0.82403,-7.49407 1.13841,-2.31159 2.51523,-3.21091 5.15819,-3.36925 2.59928,-0.15572 3.15795,0.20325 4.00449,2.57304 l 0.6301,1.76389 h 2.45271 2.45271 l 0.0997,-3.96692 0.0997,-3.96692 -1.15807,-0.71482 c -3.41114,-2.10552 -10.40241,-2.62663 -14.83298,-1.1056 -3.92703,1.34816 -7.25788,4.9682 -8.32583,9.0487 -1.65521,6.32436 -0.97942,14.78337 1.52204,19.0518 1.61692,2.75907 5.02819,5.03417 8.72285,5.8176 2.32088,0.49213 6.92592,0.14945 9.12534,-0.67905 z m -215.001765,-0.64243 c 0.121779,-0.53358 0.584236,-2.47827 1.027683,-4.32153 0.443447,-1.84326 1.631463,-7.08201 2.640036,-11.64167 1.987829,-8.98677 2.075726,-9.34117 2.265495,-9.13452 0.07005,0.0763 1.346246,5.45682 2.835999,11.95675 1.489752,6.49993 2.869766,12.33399 3.066696,12.96458 l 0.358056,1.14653 h 4.697398 c 4.148114,0 4.72515,-0.0722 4.934731,-0.61736 0.261185,-0.67941 3.49234,-15.62713 6.005299,-27.78125 2.37964,-11.50932 2.458302,-11.76696 4.105843,-13.44735 1.116491,-1.13875 1.399392,-1.6727 1.308392,-2.46944 l -0.116104,-1.01655 -5.420573,-0.0976 c -5.616863,-0.10114 -6.397482,0.0634 -6.397482,1.34845 0,0.34942 0.417407,1.13136 0.927571,1.73765 0.81214,0.96518 0.900123,1.30878 0.707001,2.7611 -0.532853,4.00718 -4.926777,25.49215 -5.160073,25.23121 -0.142182,-0.15903 -0.415872,-1.08289 -0.6082,-2.05303 -2.233314,-11.26526 -5.914389,-28.31779 -6.187433,-28.66319 -0.236837,-0.29961 -1.468119,-0.44098 -3.840735,-0.44098 -3.288866,0 -3.511286,0.0462 -3.820976,0.79375 -0.180858,0.43657 -0.914493,3.57188 -1.6303,6.96737 -0.715807,3.39548 -1.747362,8.23736 -2.292344,10.75972 -0.544983,2.52236 -1.432118,6.68955 -1.971412,9.26041 -0.539294,2.57087 -1.084586,4.67431 -1.21176,4.67431 -0.127174,0 -0.343862,-0.75406 -0.481529,-1.6757 -0.137666,-0.92163 -1.184871,-6.75569 -2.327122,-12.96458 -1.14225,-6.20889 -2.164062,-11.79406 -2.270693,-12.41149 -0.158704,-0.91895 2.03e-4,-1.32114 0.875955,-2.21702 0.588407,-0.60194 1.069831,-1.3747 1.069831,-1.71726 0,-1.3484 -0.625101,-1.46951 -7.584722,-1.46951 -4.770339,0 -6.861681,0.12363 -7.161388,0.42334 -0.740874,0.74087 -0.465938,1.88192 0.652731,2.70899 0.591835,0.43756 1.23372,1.21024 1.426411,1.71705 0.292004,0.76803 3.462553,15.35788 7.570743,34.83812 1.355525,6.42765 0.660251,5.82084 6.66944,5.82084 h 5.116119 z m 139.338157,0.19359 c 0.195202,-0.61503 -0.01649,-1.00027 -1.017743,-1.85209 -0.695316,-0.59154 -1.430529,-1.52243 -1.633806,-2.06863 -0.225636,-0.60629 -0.369594,-4.89751 -0.369594,-11.01714 v -10.02403 l 1.499305,-0.76558 c 0.903046,-0.46112 2.424723,-0.83202 3.826284,-0.93264 2.177916,-0.15635 2.399449,-0.10211 3.458311,0.84661 0.692857,0.62079 1.25754,1.56057 1.456966,2.42477 0.446964,1.93689 0.426772,18.02673 -0.02466,19.65216 -0.214793,0.77337 -0.790571,1.61203 -1.409144,2.05249 -0.668514,0.47602 -1.045949,1.05437 -1.045949,1.6027 v 0.85793 h 7.055555 7.055553 v -0.86194 c 0,-0.47407 -0.27781,-1.06938 -0.61736,-1.32292 -1.670661,-1.24746 -1.665041,-1.20819 -1.878418,-13.12654 -0.189436,-10.58112 -0.25388,-11.45413 -0.983169,-13.31888 -1.931768,-4.93942 -7.472176,-7.12547 -13.390593,-5.28345 -1.163656,0.36217 -2.591369,0.99717 -3.172695,1.41111 -1.905745,1.35701 -1.909132,1.34538 -1.776063,-6.09648 0.06736,-3.76701 0.01342,-6.95845 -0.119854,-7.09209 -0.133278,-0.13365 -2.699731,0.17032 -5.703229,0.67549 -3.003498,0.50516 -5.553515,0.91848 -5.666704,0.91848 -0.113189,0 -0.205799,0.38392 -0.205799,0.85317 0,0.58977 0.370386,1.08208 1.199718,1.59464 0.659845,0.4078 1.33213,1.01606 1.493966,1.35169 0.351621,0.7292 0.627089,32.39448 0.30102,34.6025 -0.163652,1.10819 -0.612851,1.95539 -1.61082,3.03806 -2.435628,2.64234 -2.403163,2.65716 5.824287,2.65716 7.118006,0 7.211254,-0.01 7.454638,-0.77655 z m 98.861068,0.35321 c 0.72977,-0.72976 0.46592,-1.61616 -0.72319,-2.42957 -1.96816,-1.34631 -2.02848,-1.53226 -2.02848,-6.25375 v -4.38569 l 1.60533,-2.24966 c 0.88293,-1.23731 1.75839,-2.24966 1.94546,-2.24966 0.46733,0 0.97521,0.90535 5.62144,10.02066 l 4.05694,7.95923 5.90231,0.006 5.9023,0.006 0.23821,-0.94909 c 0.19105,-0.76121 0.0712,-1.05801 -0.60534,-1.49931 -0.46395,-0.30262 -1.27444,-0.94709 -1.80108,-1.43216 -0.84776,-0.78083 -10.2457,-16.99712 -12.29503,-21.21528 l -0.78682,-1.61949 3.28856,-4.36942 c 6.77646,-9.00371 8.06492,-10.47342 9.74391,-11.11463 1.48544,-0.5673 1.55636,-0.65815 1.45531,-1.86446 l -0.10622,-1.26811 -7.30392,-0.0953 c -7.06097,-0.0921 -7.31685,-0.0711 -7.69246,0.63069 -0.52772,0.98605 -0.16903,1.91866 0.93062,2.4197 0.73034,0.33276 0.88298,0.60903 0.76052,1.37645 -0.0843,0.52807 -2.52256,4.532 -5.41843,8.89763 l -5.26522,7.9375 -0.095,-8.07731 c -0.10372,-8.82407 -0.0286,-9.21756 1.94051,-10.16131 0.79078,-0.37902 0.97667,-0.70221 0.97667,-1.69808 v -1.22997 l -7.05556,-0.1 c -3.88055,-0.055 -7.41274,-0.0123 -7.8493,0.0949 -1.26752,0.31125 -1.09844,2.15856 0.26835,2.93191 0.6812,0.38543 1.18656,1.04376 1.40914,1.83567 0.45669,1.62483 0.469,34.92143 0.0134,36.11986 -0.1857,0.48841 -0.80052,1.12739 -1.36628,1.41995 -1.13468,0.58677 -1.5533,1.55936 -1.05466,2.45036 0.28437,0.50816 1.22292,0.57928 7.64442,0.57928 5.22316,0 7.44152,-0.12128 7.74358,-0.42334 z M 22.065836,148.30776 c 0.861452,-0.39106 1.792726,-1.17052 2.203542,-1.84434 0.692383,-1.13564 0.711561,-1.7306 0.712844,-22.11554 l 0.0013,-20.9485 -1.541082,-1.54108 -1.541082,-1.54108 H 8.096627 -5.7081231 v -3.175001 -3.175 h -2.9986109 -2.998611 v 3.175 3.175001 h -4.456276 c -5.008715,0 -6.051512,0.35884 -7.361778,2.53327 -0.678559,1.12609 -0.709721,1.8998 -0.814421,20.22089 -0.05988,10.4775 -0.0117,19.85991 0.107046,20.8498 0.146321,1.2197 0.522522,2.16317 1.167199,2.92721 1.789017,2.12025 1.79091,2.12042 23.70545127,2.12893 18.91070273,0.007 20.00838773,-0.027 21.42395973,-0.66956 z M 5.7162005,138.44787 c -1.6877347,-0.76643 -3.0670382,-2.42915 -3.8499107,-4.64099 -0.3043241,-0.8598 -1.33331493,-4.66888 -2.2866462,-8.46462 -0.9533313,-3.79573 -1.9405137,-7.28823 -2.1937386,-7.76111 -1.596588,-2.98147 -3.1608863,-4.00523 -4.6395401,-3.03638 -1.0613856,0.69544 -2.0710632,2.32016 -3.0196329,4.85903 -0.992372,2.6561 -3.097107,5.56815 -4.601573,6.3666 -0.699849,0.37143 -1.953234,0.65237 -2.910416,0.65237 -1.844396,0 -1.968957,-0.2369 -1.460712,-2.77812 0.199528,-0.99764 0.345228,-1.10243 1.532824,-1.10243 1.698012,0 1.997169,-0.36538 4.372609,-5.34056 2.72877,-5.7152 4.9588201,-7.52057 8.4748577,-6.86096 1.6360786,0.30693 4.30482694,2.42159 5.15212832,4.08244 0.38466322,0.754 1.57859628,4.86405 2.65318458,9.13344 1.0745883,4.26939 2.1838241,8.31306 2.4649686,8.98594 0.5740262,1.37383 2.0611249,2.6997 3.0280053,2.6997 0.9992699,0 2.2465255,-1.97851 3.6694605,-5.82084 1.682211,-4.54244 2.537744,-6.04612 3.929334,-6.90617 1.21879,-0.75325 3.474172,-1.00596 4.028729,-0.4514 0.192814,0.19281 0.242963,1.06818 0.114774,2.00343 -0.195444,1.42591 -0.358071,1.68814 -1.149098,1.85288 -1.711689,0.35648 -1.976454,0.73732 -3.567266,5.13124 -2.014694,5.56469 -2.124779,5.74275 -4.333903,7.0097 -2.1257855,1.21916 -3.3782862,1.30874 -5.4084385,0.38681 z m 84.7076115,9.72915 c 0.582083,-0.35592 1.375833,-1.0703 1.763889,-1.58749 0.684595,-0.91243 0.708417,-1.56771 0.801864,-22.05714 l 0.09631,-21.11678 -1.549195,-1.5492 -1.549196,-1.54919 H 77.94662 65.905759 v -6.52639 -6.526388 h -2.108708 -2.108709 l -0.09615,6.438194 -0.09615,6.438194 -6.939984,0.17639 c -6.798265,0.17279 -6.959481,0.1944 -7.89477,1.05833 -1.945701,1.79726 -1.922189,1.51462 -1.922189,23.10695 0,21.51629 -0.01606,21.3185 1.871765,23.05859 0.497399,0.45847 1.430671,0.9607 2.073937,1.11606 0.643267,0.15536 10.059575,0.2565 20.925129,0.22474 18.482746,-0.054 19.82374,-0.0994 20.813887,-0.70487 z m 60.740428,-0.0908 c 0.54762,-0.4059 1.35286,-1.26281 1.78943,-1.90425 l 0.79375,-1.16626 -0.008,-20.14436 c -0.007,-19.10166 -0.0428,-20.22159 -0.68504,-21.63638 -0.98297,-2.16538 -2.41396,-2.91476 -5.56902,-2.91638 l -2.55764,-0.001 v -3.175001 -3.175 h -2.99861 -2.99861 v 3.175 3.175001 h -9.02087 -9.02087 l 0.11324,-3.175811 0.11323,-3.17581 -2.91042,8.1e-4 -2.91042,8.1e-4 v 3.175 3.175001 h -3.91432 c -4.24391,0 -5.16815,0.293 -6.49262,2.05825 -0.68399,0.91162 -0.70862,1.57109 -0.80587,21.57786 -0.0552,11.35062 -0.0177,20.97364 0.0832,21.38448 0.25773,1.04922 2.26022,2.91629 3.5338,3.29482 0.59259,0.17613 10.29949,0.2897 21.7696,0.2547 20.40118,-0.0623 20.71454,-0.0738 21.69583,-0.80116 z m -22.49516,-7.85929 c -0.85601,-0.54854 -1.87388,-1.36047 -2.26194,-1.80428 -0.38805,-0.44382 -2.25592,-2.14562 -4.15082,-3.78178 l -3.44527,-2.97484 -2.33505,-0.0844 c -3.45894,-0.12495 -3.6508,-0.4618 -3.6508,-6.40969 0,-2.58525 0.15166,-5.09936 0.33703,-5.58692 0.52303,-1.37567 1.86088,-2.04299 4.21765,-2.10378 l 2.10563,-0.0543 4.53363,-4.09328 c 2.4935,-2.2513 4.85808,-4.26691 5.25462,-4.47914 0.95537,-0.51129 4.92259,0.30697 7.42558,1.53157 2.27863,1.11483 4.99792,3.52591 6.45126,5.72006 2.90777,4.38992 3.286,10.51714 0.95254,15.43074 -2.26011,4.75914 -6.90189,8.15576 -12.96462,9.48687 -0.64373,0.14134 -1.37214,-0.0937 -2.46944,-0.79688 z m 7.63123,-5.34695 c 1.51308,-0.93514 3.45964,-3.11457 4.46725,-5.00168 0.68864,-1.28974 0.80898,-2.04013 0.80875,-5.04298 -2.4e-4,-3.17677 -0.098,-3.71325 -0.98218,-5.39191 -1.58783,-3.01443 -4.03708,-5.11554 -7.49623,-6.43071 l -0.86993,-0.33075 v 4.5982 c 0,3.00282 0.1235,4.52188 0.35594,4.37822 0.64188,-0.3967 1.75843,0.20893 2.29377,1.24416 1.18363,2.28888 0.0946,5.98974 -1.76258,5.98974 h -0.88713 v 3.8649 3.86491 l 1.4606,-0.51533 c 0.80333,-0.28343 1.97861,-0.83548 2.61174,-1.22677 z M 32.239649,124.84441 c 2.019054,-0.60353 3.392291,-1.76634 4.385773,-3.71373 0.676907,-1.32684 0.70534,-2.08053 0.70534,-18.69679 0,-16.306278 -0.03896,-17.390418 -0.669279,-18.623086 -0.867628,-1.696759 -2.112369,-3.019781 -3.603779,-3.830416 -0.992509,-0.539465 -2.27585,-0.679746 -7.573707,-0.827874 -6.32149,-0.17675 -6.390322,-0.187216 -7.673287,-1.166725 -2.317061,-1.769014 -2.328498,-1.834619 -2.367874,-13.583279 -0.03889,-11.60301 0.04837,-12.169696 2.017721,-13.104138 0.548127,-0.260082 2.02847,-0.5688 3.289651,-0.686041 l 2.293055,-0.213166 0.108399,-1.90307 0.108398,-1.90307 -2.952887,0.184224 c -3.228305,0.201407 -4.70207,0.766477 -6.533993,2.505261 -2.060166,1.955424 -2.207346,3.132053 -1.964769,15.70733 0.149689,7.759962 0.351988,11.499682 0.663722,12.26967 0.637022,1.573453 2.866412,3.929241 4.549844,4.807804 1.25799,0.656529 2.229256,0.773147 7.867124,0.944592 l 6.431949,0.195591 1.152773,1.153043 1.152772,1.153043 0.107818,15.956677 c 0.07328,10.84489 -0.01616,16.38094 -0.279172,17.28102 -0.470848,1.61133 -1.692091,2.47387 -3.855098,2.72279 -1.467212,0.16885 -1.628777,0.28058 -1.733732,1.19897 -0.06366,0.55702 -0.02095,1.39046 0.09492,1.85208 0.255241,1.01696 1.606862,1.11783 4.278322,0.31929 z M -6.7534409,86.029719 c 0.1386582,-3.357379 0.3559775,-4.927665 0.8111212,-5.860928 0.3419443,-0.701149 2.0046909,-2.543074 3.6949923,-4.093167 1.87640058,-1.720755 3.4839431,-3.559877 4.1277672,-4.722405 L 2.9349316,69.449165 V 52.657537 c 0,-17.932442 0.035819,-18.323325 1.7321781,-18.902617 0.4054964,-0.138473 5.5791403,-0.205337 11.4969873,-0.148585 11.497976,0.110264 12.522181,-0.01474 12.914084,-1.576212 0.108443,-0.43207 0.144324,-1.148028 0.07974,-1.591018 l -0.117432,-0.805437 -12.28983,-0.06676 C 4.7719747,29.50184 4.4243482,29.51944 3.0200739,30.262038 c -2.24904513,1.189323 -3.42013072,2.893696 -3.80162573,5.532805 -0.17945077,1.241405 -0.32946607,9.059358 -0.33336737,17.373229 -0.00601,12.804192 -0.089359,15.289491 -0.5449709,16.249622 -0.2958327,0.623421 -2.0672669,2.631788 -3.9365205,4.463037 -4.5717164,4.478768 -4.8273944,5.07978 -4.9890714,11.727588 l -0.127026,5.223044 1.8848313,-0.107766 1.8848315,-0.107767 z M 120.23353,82.917563 c 0,-6.425266 -0.10825,-8.192363 -0.58815,-9.600782 -0.74516,-2.186942 -3.28938,-4.790855 -5.23268,-5.355461 -0.89029,-0.258665 -5.16402,-0.442647 -11.57927,-0.498481 -11.242837,-0.09785 -10.911348,-0.164617 -10.737801,2.162714 l 0.09207,1.234723 10.293671,0.176388 c 9.76687,0.167362 10.34461,0.214386 11.28889,0.918821 2.2362,1.668205 2.39521,2.361847 2.51877,10.987429 l 0.11245,7.849305 h 1.91602 1.91603 z m 23.63266,-6.677426 -0.003,-14.552083 -0.83633,-1.763889 c -0.45998,-0.970139 -1.45062,-2.352396 -2.20142,-3.071682 -2.10787,-2.019413 -3.63547,-2.396373 -9.71104,-2.396373 -5.45963,0 -6.99046,-0.301211 -8.05821,-1.585551 -0.41305,-0.496845 -0.56787,-2.082451 -0.70555,-7.226196 l -0.17639,-6.589684 -1.07279,-1.73609 c -0.68627,-1.110597 -1.63954,-2.053844 -2.64583,-2.618034 -1.54899,-0.868459 -1.68093,-0.88063 -8.6286,-0.795943 -6.17558,0.07528 -7.11076,0.160965 -7.49818,0.68705 -0.4472,0.607256 -0.29525,1.680373 0.35261,2.490143 0.25891,0.32363 2.05708,0.440972 6.75749,0.440972 8.98509,0 9.03,0.04245 9.0331,8.537342 0.002,6.112277 0.23675,7.318471 1.78879,9.199979 2.06431,2.502515 3.2249,2.851058 10.20369,3.064309 6.88395,0.210353 7.40256,0.372481 8.90142,2.782788 0.79196,1.273536 0.801,1.428568 0.90319,15.485719 l 0.10323,14.199305 h 1.74886 1.74885 z m -75.226404,6.922947 c 0.61565,-0.680124 0.79375,-1.301744 0.79375,-2.770414 0,-1.528052 0.178342,-2.105486 0.923966,-2.99161 1.317628,-1.565912 2.564397,-2.101682 5.849207,-2.513562 4.505872,-0.564989 8.133204,-2.371306 10.637776,-5.297336 1.401517,-1.637356 2.697383,-4.17213 2.697383,-5.276203 0,-0.583223 0.150838,-0.685299 0.737512,-0.499096 1.284167,0.407579 5.151569,-0.556668 7.286572,-1.816738 3.850718,-2.272679 6.341758,-5.8959 7.179528,-10.442647 0.81368,-4.416012 -0.76633,-8.780706 -4.54731,-12.561686 L 97.910667,36.706289 98.259457,34.782 C 99.442522,28.254986 93.685852,20.572344 86.87977,19.595082 85.249346,19.360975 85.193269,19.311756 84.724392,17.703273 84.11137,15.600298 81.60434,13.036356 78.959365,11.807374 76.29534,10.56954 72.311273,10.566979 69.293532,11.80116 l -2.080282,0.850784 -0.148754,12.082639 -0.148755,12.082638 h 2.686044 c 2.381479,0 2.784228,-0.09818 3.551953,-0.865909 0.830556,-0.830556 0.865909,-1.053163 0.865909,-5.452389 0,-4.310495 -0.05307,-4.664682 -0.881944,-5.886097 -0.973424,-1.43442 -1.056917,-2.005061 -0.519098,-3.547848 0.648351,-1.85986 3.825387,-2.928745 5.312168,-1.787231 1.485583,1.140594 1.807664,3.495769 0.674985,4.935737 -0.619497,0.787562 -0.705556,1.431144 -0.705556,5.276399 0,4.983218 -0.464121,6.860596 -2.138586,8.650617 -1.966091,2.101771 -2.87204,2.385394 -7.474607,2.340052 l -4.145139,-0.04084 v 0.990155 c 0,1.51299 -0.614318,1.557766 -0.866479,0.06316 L 63.051944,40.168611 60.305504,40.345 c -2.412459,0.154939 -3.015151,0.342371 -4.956128,1.541313 -1.583018,0.97783 -2.640769,1.379434 -3.729715,1.416089 -1.221125,0.0411 -1.768861,0.292986 -2.78543,1.280909 -1.428395,1.388145 -1.56531,1.930379 -0.615743,2.438572 0.980329,0.524657 1.561998,2.179803 1.148374,3.267716 -0.429567,1.129848 -1.736608,1.485041 -3.609186,0.980808 -1.182013,-0.318283 -1.53867,-0.635188 -2.095702,-1.862122 -1.024811,-2.257274 -0.880531,-3.1163 0.888064,-5.287435 1.927141,-2.365769 4.637301,-4.402795 6.67267,-5.015351 0.83822,-0.252267 2.381378,-0.8939 3.429239,-1.425851 1.540962,-0.782276 2.529065,-1.000082 5.168396,-1.139263 l 3.263194,-0.172078 0.0021,-8.85957 c 0.0012,-4.872763 0.101665,-10.138097 0.223337,-11.700741 l 0.221223,-2.841171 -2.07542,-0.913304 C 58.743938,10.860597 56.48793,10.566883 53.99,11.081668 c -3.912205,0.806247 -6.563739,2.79426 -8.223451,6.165614 -1.049622,2.132085 -1.202895,2.28383 -2.306835,2.28383 -1.705771,0 -4.522307,1.165881 -6.263658,2.592788 -1.85717,1.521811 -4.007756,4.593219 -4.319068,6.168374 l -0.232511,1.176441 4.547996,-0.232327 c 2.501398,-0.127779 5.4059,-0.378498 6.454449,-0.557152 1.314471,-0.223964 2.051289,-0.204623 2.372894,0.06229 0.353551,0.293421 0.788646,0.130116 1.797714,-0.674737 2.669619,-2.129341 3.387091,-3.107274 3.149873,-4.293362 -0.131989,-0.659946 0.005,-1.643139 0.348625,-2.501912 1.593915,-3.983585 6.828607,-2.629133 6.828607,1.76687 0,2.122859 -0.91358,3.3709 -2.904086,3.96727 -0.800317,0.239781 -1.94887,0.918289 -2.552339,1.507796 -4.138319,4.042574 -3.992513,3.963407 -7.80763,4.239233 -1.921089,0.138891 -5.553287,0.437501 -8.071553,0.663577 l -4.578665,0.411048 -0.292531,1.744875 c -0.224453,1.338808 -0.639295,2.117732 -1.78258,3.347042 -2.44662,2.630713 -3.133186,4.023293 -3.328351,6.750987 l -0.174288,2.435902 h 3.687538 c 2.21686,0 4.383837,0.206778 5.433417,0.51847 1.950215,0.579152 3.851826,2.314302 5.037799,4.596807 0.403262,0.776111 1.332906,2.06169 2.065875,2.856841 1.665953,1.807283 5.886089,5.433437 6.323462,5.433437 0.373802,0 1.9874,-2.455949 4.532622,-6.898796 2.061004,-3.597616 2.827798,-4.261476 4.200047,-3.636238 0.513554,0.233991 1.008274,0.75541 1.099378,1.158709 0.0911,0.403298 0.881048,3.650038 1.755431,7.214977 0.874382,3.564938 1.589786,6.541501 1.589786,6.614583 0,0.07308 0.15875,0.132876 0.352778,0.132876 0.194028,0 0.352778,-0.276807 0.352778,-0.615127 0,-0.338319 0.67436,-2.899656 1.498577,-5.691859 1.195023,-4.04838 1.65424,-5.147658 2.267041,-5.426869 1.572063,-0.71628 2.4237,-0.07052 4.760192,3.60947 1.228651,1.935132 2.419406,3.522888 2.646121,3.528348 0.226716,0.0055 0.762394,-1.061637 1.190397,-2.371324 1.16387,-3.561443 2.071718,-4.97948 3.861657,-6.031815 1.493405,-0.877997 1.911375,-0.942961 6.794763,-1.056096 2.861909,-0.0663 5.203471,-0.258556 5.203471,-0.42723 0,-0.720083 1.609205,-1.745275 2.739491,-1.745275 1.593735,0 3.257731,1.613664 3.257731,3.159193 0,3.82255 -3.679488,6.107536 -5.664356,3.517602 l -0.830995,-1.084315 -4.662492,0.114176 c -5.63807,0.138067 -5.974303,0.340933 -7.154579,4.316703 -0.876211,2.951526 -2.249048,5.270601 -3.441775,5.814044 -1.661458,0.757011 -3.675709,-0.63589 -5.480079,-3.7896 -1.32445,-2.314897 -1.239354,-2.421926 -3.307211,4.159614 -2.525327,8.037567 -3.065082,9.356567 -3.876437,9.472853 -0.398646,0.05714 -1.130175,-0.214976 -1.625618,-0.604692 -0.744652,-0.585743 -1.03597,-1.368175 -1.680525,-4.513604 -1.410034,-6.880964 -2.903876,-12.800864 -3.230202,-12.800864 -0.1764,0 -0.320727,0.177089 -0.320727,0.39353 0,0.740776 -3.217916,5.234923 -4.512261,6.301832 -1.641697,1.353225 -2.873617,1.357811 -4.821043,0.01795 -2.46509,-1.696026 -8.066562,-7.433726 -9.343203,-9.57043 -0.649073,-1.086348 -1.514575,-2.185972 -1.923339,-2.443609 -0.44662,-0.281498 -2.256601,-0.532021 -4.535568,-0.627777 l -3.792361,-0.159344 v 1.22369 c 0,1.810618 1.877715,5.249656 3.898226,7.139607 1.929247,1.804585 4.730594,3.252801 7.06186,3.650778 1.41571,0.24168 1.507246,0.333244 1.906978,1.907549 1.182303,4.656386 6.103893,8.665432 11.567342,9.422564 4.111033,0.569713 5.762043,2.091286 6.134361,5.653436 0.228618,2.187295 0.946277,3.275931 2.415952,3.664821 0.388056,0.102683 2.293055,0.107397 4.233333,0.01048 3.193917,-0.159543 3.602896,-0.259205 4.321527,-1.053095 z M 70.8516,48.711318 c -1.731859,-0.876278 -2.331542,-3.572285 -1.074259,-4.829568 1.355572,-1.355572 3.700619,-1.355239 4.861602,6.91e-4 0.52659,0.615013 1.050508,0.695891 4.507863,0.695891 3.484137,0 3.998833,-0.08088 4.705709,-0.739432 0.436528,-0.406688 0.942712,-1.131397 1.124854,-1.610466 0.442199,-1.163072 0.431499,-7.880657 -0.01255,-7.880657 -0.50553,0 -1.42017,-1.937406 -1.42017,-3.008229 0,-0.553767 0.41492,-1.34152 1.031197,-1.957797 1.901685,-1.901685 5.298241,-1.064647 5.848645,1.441326 0.266768,1.214586 -0.34568,3.378544 -1.030589,3.641368 -0.33589,0.128893 -0.509613,1.302272 -0.620078,4.188213 -0.181153,4.732662 -0.968036,6.843475 -3.067052,8.22737 -1.538363,1.014251 -5.611793,1.720346 -8.654794,1.500235 -1.359087,-0.09831 -2.447933,0.01456 -3.019857,0.313046 -1.116163,0.582515 -2.054339,0.587827 -3.180518,0.01801 z m -7.762661,-3.847583 c 0.003,-0.253985 0.15929,-0.699917 0.347376,-0.990958 0.278019,-0.430204 0.342984,-0.384617 0.347375,0.243763 0.003,0.425112 -0.153348,0.871043 -0.347375,0.990959 -0.194028,0.119915 -0.350347,0.01022 -0.347376,-0.243764 z m -78.59221,33.963055 1.152093,-1.029318 0.176389,-31.338042 0.176389,-31.338041 25.496813,-0.09052 25.496813,-0.09052 0.407259,-0.893836 c 0.276272,-0.606351 0.299149,-1.20129 0.07113,-1.849761 L 37.137481,11.240833 11.569541,11.064444 -13.9984,10.888056 V 4.0088891 c 0,-3.78354153 0.123091,-7.3197312 0.273537,-7.8581993 0.339903,-1.2165716 2.486493,-3.6307873 3.9332842,-4.4236661 1.0073929,-0.5520773 6.2732425,-0.594523 73.7570598,-0.594523 H 136.6377 l 1.66631,0.979515 c 1.08055,0.6351804 2.01066,1.5652855 2.64584,2.6458332 0.97278,1.6548724 0.98033,1.7165997 1.09854,8.9864569 l 0.11902,7.3201382 H 117.95287 93.738329 l 0.10663,1.852084 0.106631,1.852083 24.07708,0.09064 24.07708,0.09064 v 18.63497 18.63497 l 1.60124,1.149926 c 2.84325,2.041863 2.66043,4.109651 2.55176,-28.861286 l -0.096,-29.1426431 -0.93415,-1.9924753 c -1.13813,-2.4275729 -3.09723,-4.4503056 -5.43074,-5.6071306 l -1.749,-0.867061 H 64.14187 -9.7650672 l -1.9402778,0.921738 c -2.391237,1.135969 -4.316649,3.0432904 -5.487043,5.4354885 l -0.889889,1.8188689 0.01976,42.0815136 c 0.01087,23.144833 0.105671,42.220523 0.210675,42.390423 0.353378,0.571779 1.189228,0.315387 2.348572,-0.720409 z M 0.14798743,3.5150002 C 1.8333861,1.8296015 1.7860695,0.48396494 -0.02217596,-1.3242806 -1.0365741,-2.3386788 -1.6815713,-2.6938884 -2.5091391,-2.6938884 c -2.4902298,0 -4.5400471,2.14297917 -4.0750216,4.2602267 0.1248748,0.5685511 0.7027799,1.509464 1.2842335,2.0909178 0.8627567,0.8627567 1.3506494,1.0571885 2.6528294,1.0571885 1.3442801,0 1.78458898,-0.1889481 2.79508523,-1.1994444 z M 13.350945,3.7013145 c 1.369649,-1.3696482 1.660171,-2.6860379 0.903066,-4.09189596 -0.670465,-1.24497904 -2.213933,-2.30330694 -3.359147,-2.30330694 -1.3772049,0 -3.1426964,0.9875225 -3.7031688,2.0713566 -0.8692617,1.6809669 -0.6949889,2.795696 0.646847,4.137532 1.0221271,1.0221272 1.4433559,1.1994444 2.8493588,1.1994444 1.346509,0 1.83622,-0.1863061 2.663044,-1.0131301 z m 12.967226,0.4625484 c 1.084918,-0.7599061 1.939286,-2.5350551 1.692791,-3.51716882 -0.356401,-1.42001549 -1.921098,-2.94683088 -3.281487,-3.20204138 -2.548704,-0.4781398 -4.98869,1.83526375 -4.527659,4.2927712 0.464151,2.4741368 4.029109,3.888403 6.116355,2.426439 z"
         id="path15" /><g
         id="g17"
         inkscape:export-filename="..\public\favicon.png"
         inkscape:export-xdpi="6.2329373"
         inkscape:export-ydpi="6.2329373"><path
           style="display:inline;fill:#e445b7"
           d="m 48.684796,148.65718 c -0.643266,-0.15536 -1.576538,-0.65759 -2.073937,-1.11606 -1.88782,-1.74009 -1.871765,-1.5423 -1.871765,-23.05859 0,-21.59233 -0.02351,-21.30969 1.922189,-23.10695 0.935289,-0.86393 1.096505,-0.88554 7.89477,-1.05833 l 6.939984,-0.17639 0.09615,-6.438194 0.09615,-6.438194 h 2.108709 2.108708 v 6.526388 6.52639 H 77.94662 89.987482 l 1.549196,1.54919 1.549195,1.5492 -0.09631,21.11678 c -0.09345,20.48943 -0.117269,21.14471 -0.801864,22.05714 -0.388056,0.51719 -1.181806,1.23157 -1.763889,1.58749 -0.990147,0.60545 -2.331141,0.65086 -20.813887,0.70487 -10.865554,0.0318 -20.281862,-0.0694 -20.925129,-0.22474 z M -10.585482,85.608319 c 0.161677,-6.647808 0.417355,-7.24882 4.9890714,-11.727588 1.8692536,-1.831249 3.6406878,-3.839616 3.9365205,-4.463037 0.4556119,-0.960131 0.5389625,-3.44543 0.5449709,-16.249622 0.0039,-8.313871 0.1539166,-16.131824 0.33336737,-17.373229 0.38149501,-2.639109 1.5525806,-4.343482 3.80162573,-5.532805 C 4.4243482,29.51944 4.7719747,29.50184 16.750655,29.566909 l 12.28983,0.06676 0.117432,0.805437 c 0.06459,0.44299 0.02871,1.158948 -0.07974,1.591018 C 28.686274,33.591592 27.662069,33.7166 16.164093,33.606336 10.24625,33.549583 5.0726061,33.616447 4.6671097,33.75492 2.9707509,34.334212 2.9349316,34.725095 2.9349316,52.657537 v 16.791628 l -1.0544918,1.904054 c -0.6438241,1.162528 -2.25136662,3.00165 -4.1277672,4.722405 -1.6903014,1.550093 -3.353048,3.392018 -3.6949923,4.093167 -0.4551437,0.933263 -0.672463,2.503549 -0.8111212,5.860928 l -0.1894043,4.586111 -1.8848315,0.107767 -1.8848313,0.107766 z M -5.2999272,3.6572561 C -5.8813808,3.0758023 -6.4592859,2.1348894 -6.5841607,1.5663383 c -0.4650255,-2.11724753 1.5847918,-4.2602267 4.0750216,-4.2602267 0.8275678,0 1.472565,0.3552096 2.48696314,1.3696078 1.80824546,1.80824554 1.85556206,3.1538821 0.17016339,4.8392808 -1.01049625,1.0104963 -1.45080513,1.1994444 -2.79508523,1.1994444 -1.30218,0 -1.7900727,-0.1944318 -2.6528294,-1.0571885 z"
           id="path14"
           sodipodi:nodetypes="ssssscccccccccccssscssssssssscscssscsssscccssssssss" /><path
           d="m -17.85185,79.547201 c -0.105,-0.1699 -0.19981,-19.24559 -0.21067,-42.390424 l -0.0198,-42.0815147 0.88989,-1.818869 c 1.17039,-2.3921982 3.0958,-4.2995193 5.48704,-5.4354883 l 1.94028,-0.921738 h 73.90693 73.90694 l 1.749,0.867061 c 2.33351,1.156825 4.29261,3.1795574 5.43074,5.6071304 l 0.93415,1.9924754 0.096,29.1426442 c 0.10867,32.970938 0.29149,30.90315 -2.55176,28.861287 l -1.60124,-1.149927 V 33.584868 14.949897 l -24.07708,-0.09064 -24.07708,-0.09064 -0.10663,-1.852083 -0.10663,-1.852084 h 24.21454 24.21454 l -0.11902,-7.3201381 c -0.11821,-7.2698574 -0.12576,-7.3315847 -1.09854,-8.9864571 -0.63518,-1.0805478 -1.56529,-2.0106529 -2.64584,-2.6458333 L 136.6376,-8.8674936 H 63.96543 c -67.48381,0 -72.74966,0.042446 -73.75705,0.5945231 -1.44679,0.7928788 -3.59338,3.2070946 -3.93329,4.4236662 -0.15044,0.5384681 -0.27353,4.07465788 -0.27353,7.8581995 v 6.8791668 l 25.56794,0.176388 25.56794,0.176389 0.33613,0.955926 c 0.22802,0.648471 0.20514,1.24341 -0.0711,1.849761 l -0.40726,0.893836 -25.49681,0.09052 -25.49682,0.09052 -0.17639,31.338042 -0.17638,31.338043 -1.1521,1.029318 c -1.15934,1.035796 -1.99519,1.292188 -2.34857,0.720409 z"
           style="display:inline;fill:#9049dc;fill-opacity:1"
           id="path1-5" /><path
           d="m 116.28903,82.942916 c -0.12356,-8.625582 -0.28257,-9.319224 -2.51877,-10.987429 -0.94428,-0.704435 -1.52202,-0.751459 -11.28889,-0.918821 L 92.1877,70.860278 92.0956,69.625555 c -0.17354,-2.327331 -0.50503,-2.260565 10.7378,-2.162714 6.41525,0.05583 10.68898,0.239816 11.57927,0.498481 1.9433,0.564606 4.48752,3.168519 5.23268,5.355461 0.4799,1.408419 0.58815,3.175516 0.58815,9.600782 v 7.874657 h -1.91603 -1.91602 z"
           style="display:inline;fill:#9049dc;fill-opacity:1"
           id="path1" /><path
           style="display:inline;fill:#f5be10"
           d="m -21.72246,147.96989 c -0.561706,-0.37031 -1.319449,-1.1442 -1.683875,-1.71977 -0.632053,-0.99826 -0.65815,-2.01563 -0.566217,-22.07286 l 0.09638,-21.02636 1.32779,-1.32862 1.32779,-1.32863 4.757626,-0.11553 4.757626,-0.11553 v -3.147664 -3.147667 h 2.998611 2.9986109 v 3.175 3.175001 l 13.4937487,10e-4 c 12.8424114,0.001 13.5492464,0.0352 14.6435004,0.70233 0.632364,0.38556 1.465208,1.2184 1.850765,1.85076 0.678127,1.11222 0.701055,1.816 0.702331,21.55755 0.0015,22.60977 0.05456,22.06295 -2.282739,23.50748 -1.120189,0.69231 -1.709148,0.71105 -22.27563537,0.70879 -20.19335263,-0.002 -21.17006663,-0.032 -22.14630763,-0.6756 z m 32.424948,-9.55575 c 2.262321,-1.09517 2.936631,-2.07231 4.590938,-6.65266 1.915459,-5.30343 2.125101,-5.69019 3.087944,-5.69685 1.287067,-0.009 1.671239,-0.48666 1.892317,-2.35331 0.197337,-1.6662 0.157134,-1.78975 -0.648179,-1.99187 -1.356337,-0.34042 -3.5314,0.44555 -4.719652,1.70546 -0.712862,0.75586 -1.549214,2.44447 -2.416797,4.87958 -1.471047,4.12889 -3.064464,6.93777 -3.9356498,6.93777 -1.0169197,0 -2.5256866,-1.3672 -3.1041265,-2.81286 C 5.1388026,131.65339 4.1621261,128.11916 3.2788904,124.5755 1.2478679,116.42678 0.7476016,114.86548 -0.26945027,113.50135 -1.5561805,111.7755 -4.1903086,110.195 -5.7799357,110.195 c -3.2458197,0 -5.1856993,1.84538 -7.7816163,7.40257 -2.119047,4.53632 -2.462127,4.94465 -4.154546,4.94465 -1.437227,0 -1.736019,0.468 -1.74554,2.73403 -0.0048,1.14278 9.94e-4,1.14652 1.77659,1.14652 3.335565,0 4.827548,-1.44452 7.6962123,-7.4514 1.8355317,-3.84353 2.1683059,-4.29607 3.4467944,-4.68728 0.9808551,-0.30013 2.7253484,1.14196 3.7054528,3.06312 0.3981613,0.78046 1.5044619,4.58543 2.45844563,8.45548 1.91566597,7.77134 2.72454407,9.98249 4.13242487,11.29642 2.2485104,2.09846 4.4637313,2.5177 6.948206,1.31499 z M 8.8461884,4.3514983 C 7.891778,3.9677861 6.6422409,2.0221386 6.6404166,0.91690305 6.6396913,0.47749123 7.170401,-0.46177957 7.8197714,-1.1703654 c 1.0350914,-1.1294803 1.3834375,-1.2883379 2.8250936,-1.2883379 1.83514,0 3.027163,0.8290531 3.769777,2.62188326 C 15.556104,2.9189135 11.97763,5.6104667 8.8461884,4.3514983 Z"
           id="path13"
           sodipodi:nodetypes="cssccccccccccccsscsccccscssssssssssssssssssccssssss" /><path
           style="display:inline;fill:#06c1e3"
           d="m 107.92704,148.65458 c -0.6567,-0.15944 -1.76795,-0.86376 -2.46945,-1.56517 l -1.27545,-1.27527 -0.0966,-20.71494 c -0.0698,-14.97449 0.0156,-20.98563 0.30805,-21.69175 0.22254,-0.53725 0.9462,-1.45233 1.60814,-2.03352 1.18715,-1.04234 1.25855,-1.05671 5.24819,-1.05671 h 4.04467 v -3.175001 -3.175 h 2.82223 2.82222 v 3.175 3.175001 h 8.99583 8.99583 v -3.175001 -3.175 h 2.99861 2.99861 v 3.175 3.175001 l 2.55764,10e-4 c 3.19937,0.002 4.5984,0.74974 5.58866,2.9884 0.66257,1.49785 0.68614,2.36494 0.59336,21.83719 -0.0952,19.98686 -0.10724,20.29167 -0.83903,21.27316 -0.40834,0.54767 -1.28147,1.31326 -1.94028,1.70132 -1.15698,0.68148 -1.88989,0.7076 -21.48257,0.7657 -11.15659,0.0331 -20.82202,-0.0703 -21.47871,-0.22973 z m 25.57168,-8.29796 c 3.10338,-1.04177 6.70438,-3.22671 8.28512,-5.02706 0.62073,-0.70698 1.68172,-2.45012 2.35775,-3.87364 1.02658,-2.16169 1.25821,-3.09812 1.40555,-5.68223 0.2774,-4.86511 -0.92355,-8.28046 -4.15494,-11.81612 -2.60696,-2.85242 -6.20374,-4.69652 -10.42882,-5.34694 l -1.44098,-0.22183 -5.03518,4.51907 -5.03518,4.51907 -1.82742,0.0144 c -2.30024,0.0181 -3.88776,0.66378 -4.40088,1.78995 -0.23488,0.51551 -0.39854,2.87999 -0.39854,5.75791 0,6.17857 0.18986,6.51941 3.68111,6.60822 2.32666,0.0592 2.33994,0.0654 4.8822,2.26957 1.40205,1.21561 3.50169,3.11619 4.66585,4.22351 1.91719,1.82356 3.75561,3.09749 4.52391,3.13484 0.15982,0.008 1.47402,-0.38315 2.92045,-0.8687 z m -1.27075,-7.57606 v -3.84148 l 0.97014,-0.11162 c 1.22299,-0.14072 2.6654,-2.70986 2.32377,-4.13894 -0.44072,-1.84356 -1.1915,-2.87235 -2.25076,-3.0842 l -1.04315,-0.20863 v -4.18924 c 0,-4.77331 -0.0209,-4.74802 2.76186,-3.33788 2.17242,1.10085 4.46977,3.41443 5.61923,5.65894 1.30379,2.54583 1.5046,6.64961 0.46079,9.4166 -1.24583,3.30254 -3.9911,5.96647 -7.38128,7.16259 l -1.4606,0.51533 z M 28.15854,123.47352 v -1.98964 l 1.322917,-0.005 c 1.821708,-0.007 2.974706,-0.66504 3.709152,-2.11637 0.572154,-1.13063 0.614832,-2.54517 0.529167,-17.53926 l -0.09318,-16.309439 -1.152837,-1.153057 -1.152837,-1.153057 -6.255495,-0.202066 c -6.946296,-0.224381 -7.874709,-0.45978 -10.239492,-2.59622 -2.692243,-2.43228 -2.770169,-2.831129 -3.002913,-15.369769 -0.140518,-7.570101 -0.08256,-11.606663 0.181818,-12.662691 0.86314,-3.447739 4.806825,-5.862592 9.166068,-5.612697 l 1.872356,0.107334 v 1.763888 1.763889 l -2.508422,0.224203 c -3.941133,0.352258 -5.036341,1.466254 -5.173442,5.262189 -0.03818,1.057068 -0.03194,5.924855 0.01386,10.817305 l 0.08328,8.895363 1.141016,1.299545 c 1.757943,2.002188 2.72361,2.252783 8.681076,2.252783 5.958207,0 7.610944,0.385299 9.522088,2.219865 2.621519,2.516477 2.52804,1.737482 2.52804,21.066932 0,15.24962 -0.06812,17.45251 -0.570433,18.44669 -1.3001,2.57318 -3.57537,4.06034 -6.706527,4.3835 l -1.895262,0.19561 z M 140.2687,76.592914 140.16547,62.393609 139.33182,61.052678 c -1.47738,-2.376355 -1.93766,-2.518067 -8.85001,-2.724739 -6.88569,-0.205875 -8.11927,-0.557275 -10.06222,-2.866335 -1.56949,-1.865233 -1.72997,-2.646952 -1.93263,-9.413663 l -0.19371,-6.467891 -1.15209,-1.028636 -1.15209,-1.028637 h -6.47763 c -7.17255,0 -7.40803,-0.0713 -7.20545,-2.181816 l 0.11227,-1.169573 5.95774,-0.297333 c 3.27676,-0.163534 6.62958,-0.196586 7.45071,-0.07345 2.29275,0.343819 4.51276,1.936147 5.50251,3.946744 0.77988,1.58425 0.85066,2.182465 0.92387,7.80765 0.045,3.45489 0.24121,6.394537 0.45338,6.790972 0.89458,1.671531 1.8972,1.923078 8.44545,2.118865 5.43334,0.162451 6.36409,0.277439 7.60244,0.939225 1.86937,0.999007 3.50083,2.747546 4.38202,4.696493 0.68413,1.513113 0.71813,2.269376 0.72551,16.139583 l 0.008,14.552082 h -1.74885 -1.74886 z m -80.058907,7.591363 c -1.425873,-0.205636 -2.15201,-1.287242 -2.481458,-3.696214 -0.164019,-1.199333 -0.526215,-2.528576 -0.804881,-2.953874 -0.853656,-1.302844 -2.882768,-2.299448 -5.388841,-2.646743 -3.298557,-0.457119 -6.343607,-2.022671 -8.479307,-4.359467 -1.857016,-2.031871 -3.2551,-4.595338 -3.2551,-5.96841 0,-0.739185 -0.207078,-0.86781 -1.720282,-1.068544 C 33.101032,62.830552 27.860274,57.878859 27.223551,53.23346 l -0.232283,-1.69469 3.934664,0.162114 c 4.419025,0.182071 5.068392,0.508795 6.47874,3.259724 0.749095,1.461134 6.891487,7.734109 9.236389,9.432747 1.901641,1.377541 3.24662,1.314594 5.059044,-0.236773 1.367036,-1.170133 4.327877,-5.387157 4.327877,-6.164048 0,-0.198784 0.145613,-0.361425 0.323585,-0.361425 0.315335,0 2.065648,6.87175 2.830482,11.1125 0.977509,5.419969 1.697241,6.843236 3.473053,6.867947 1.016358,0.01414 1.585424,-1.262994 3.987498,-8.949021 0.976333,-3.12402 1.913144,-5.819665 2.081802,-5.990322 0.175039,-0.177115 0.829107,0.504222 1.523963,1.5875 1.294809,2.0186 2.034428,2.781795 3.362317,3.469495 1.897417,0.982653 4.065464,-1.322631 5.373008,-5.713118 0.389498,-1.307861 1.084835,-2.816078 1.545195,-3.351593 0.828546,-0.963811 0.884897,-0.974509 5.567796,-1.057012 l 4.73078,-0.08335 0.778875,1.053486 c 1.91703,2.592921 5.696642,0.363506 5.696642,-3.36018 0,-2.690615 -3.497031,-4.436524 -5.291666,-2.641889 -0.388056,0.388056 -0.705556,0.849746 -0.705556,1.025978 0,0.176232 -2.341562,0.374669 -5.203471,0.440972 -4.762329,0.11033 -5.332059,0.194181 -6.720207,0.989057 -1.754467,1.004636 -2.478937,2.059598 -3.764005,5.481089 -0.944468,2.514643 -1.568951,3.482104 -1.821967,2.822626 -0.07444,-0.194028 -1.099934,-1.821569 -2.278873,-3.616759 -2.239173,-3.409625 -3.134765,-4.05322 -4.668078,-3.354596 -0.617279,0.281251 -1.068107,1.383173 -2.291539,5.601023 -1.874338,6.461886 -1.810302,6.266979 -1.997502,6.079779 -0.08472,-0.08472 -0.956352,-3.401505 -1.936957,-7.370631 -1.709637,-6.919976 -2.197065,-8.098538 -3.349384,-8.098538 -0.963088,0 -2.082376,1.379869 -4.385746,5.406788 -1.366452,2.38893 -2.801442,4.630376 -3.188867,4.980991 -0.687112,0.621828 -0.754493,0.593793 -2.744043,-1.141716 -3.350676,-2.922836 -5.105933,-4.881114 -6.611261,-7.375947 -2.087167,-3.459137 -3.526801,-4.122774 -9.303515,-4.288707 l -4.37035,-0.125535 0.146434,-2.16752 c 0.181522,-2.686885 0.957336,-4.335485 3.189652,-6.777994 1.395196,-1.526567 1.783586,-2.230829 1.976317,-3.583626 l 0.239871,-1.683678 2.818831,-0.223308 c 10.065397,-0.797384 13.151195,-1.143676 13.931331,-1.563391 0.48507,-0.260969 1.827631,-1.433132 2.983469,-2.604808 1.428597,-1.448172 2.474139,-2.200223 3.265185,-2.348624 2.773382,-0.52029 3.956019,-4.502347 2.020357,-6.80275 -1.031872,-1.226311 -2.691592,-1.675479 -4.146747,-1.12223 -1.292053,0.491237 -2.481461,3.066928 -2.173732,4.707265 0.228219,1.216513 0.337495,1.077406 -3.613884,4.600423 -0.596122,0.531498 -0.897237,0.604011 -1.259547,0.303321 -0.33012,-0.273976 -1.117645,-0.29982 -2.56798,-0.08427 -1.150513,0.170987 -4.057504,0.410535 -6.459979,0.532329 l -4.368136,0.221444 0.229039,-1.159087 c 0.337378,-1.707347 2.577331,-4.758049 4.633305,-6.310324 2.08914,-1.577316 4.274464,-2.433485 6.211338,-2.433485 0.995426,0 1.366757,-0.147587 1.366757,-0.543221 0,-1.028218 1.46925,-3.420159 3.036386,-4.943242 3.275724,-3.183639 8.877681,-4.0679779 13.030876,-2.057086 2.083014,1.008552 2.100656,1.029848 2.084756,2.516466 -0.0088,0.824618 -0.04851,6.084119 -0.08819,11.687781 l -0.07216,10.188476 -3.263194,0.158586 c -2.71719,0.132051 -3.646873,0.341169 -5.55625,1.249791 -1.26118,0.600163 -3.03232,1.348964 -3.935866,1.664002 -1.840514,0.641728 -5.9893,4.217373 -6.870441,5.921311 -0.723228,1.398569 -0.373549,3.777212 0.730392,4.968384 1.564129,1.687723 4.885442,1.53481 5.332271,-0.245498 0.241336,-0.961562 -0.646869,-2.973786 -1.448411,-3.281367 -0.793934,-0.304661 -0.625634,-0.689438 0.973765,-2.226285 1.245051,-1.196357 1.657578,-1.396508 2.557639,-1.240927 0.844124,0.145912 1.63438,-0.154767 3.702894,-1.408891 2.481763,-1.504673 2.774571,-1.594392 5.203472,-1.594392 h 2.573729 l 0.05987,1.146528 c 0.03293,0.63059 0.02814,1.860902 -0.01063,2.734027 -0.102908,2.317188 0.518779,1.050415 0.829953,-1.691141 l 0.25201,-2.220308 2.880782,0.233745 c 4.172714,0.338572 6.511491,-0.225993 8.285581,-2.000083 2.004838,-2.004839 2.518642,-3.826 2.521432,-8.937139 0.002,-3.656519 0.10143,-4.408329 0.703231,-5.317017 1.595708,-2.40944 0.286565,-5.430511 -2.364651,-5.456836 -1.582245,-0.01571 -2.892717,0.663047 -3.482639,1.803831 -0.726387,1.404678 -0.622138,2.496615 0.379235,3.97222 0.827202,1.218951 0.881944,1.580105 0.881944,5.818548 0,4.307775 -0.04042,4.562549 -0.8651,5.452389 -0.78852,0.850828 -1.101191,0.933458 -3.532189,0.933458 h -2.66709 l 0.153028,-12.082638 0.153028,-12.082639 2.044522,-0.833274 c 2.61549,-1.06598 6.204342,-1.160705 8.947134,-0.236151 2.55702,0.861933 6.077259,4.268124 6.57144,6.35854 0.315797,1.335843 0.415884,1.420417 1.938754,1.638254 4.131923,0.591045 8.337899,3.848286 10.289585,7.968579 1.039545,2.194631 1.132164,2.67876 1.132164,5.91794 v 3.527778 l 2.131546,2.131551 c 2.30322,2.30322 3.40259,4.277096 4.27176,7.669811 1.37367,5.361972 -1.71509,12.103551 -6.951418,15.172242 -2.01012,1.178009 -5.68654,2.134031 -7.05265,1.833983 -0.897879,-0.197207 -1.042293,-0.12566 -1.042293,0.516388 0,1.124895 -1.510441,3.869196 -3.157388,5.736614 -1.892376,2.145705 -6.122531,4.320175 -9.047849,4.650961 -4.121608,0.466058 -5.331458,0.895376 -6.656549,2.362093 -1.105103,1.223217 -1.246546,1.597589 -1.246546,3.299366 0,1.495665 -0.175292,2.113255 -0.79375,2.796532 -0.717659,0.792877 -1.115021,0.890306 -4.145138,1.016346 -1.843264,0.07667 -3.771448,0.07882 -4.284855,0.0048 z M 78.605758,48.474382 c 4.605475,-0.328482 5.768674,-0.611844 7.462394,-1.817879 1.860155,-1.324547 2.502005,-3.185873 2.693438,-7.81081 0.09436,-2.279826 0.3111,-4.145138 0.481633,-4.145138 0.170533,0 0.566597,-0.537965 0.880142,-1.195476 1.220923,-2.560302 -0.352188,-5.154524 -3.125653,-5.154524 -2.98964,0 -4.584979,3.486269 -2.533918,5.537329 0.896174,0.896175 0.915889,1.014362 0.788762,4.728507 -0.12489,3.648802 -0.173847,3.854722 -1.161538,4.88565 -1.025064,1.069936 -1.053677,1.076291 -4.845706,1.076291 -3.327804,0 -3.90344,-0.08889 -4.511136,-0.696582 -1.372094,-1.372094 -3.603024,-1.353812 -4.997792,0.04096 -1.035071,1.035072 -0.720391,3.331505 0.613771,4.479103 0.795689,0.684424 1.207499,0.788364 2.403063,0.606531 0.79355,-0.120691 3.427193,-0.360972 5.85254,-0.533958 z M 21.494826,3.8112344 c -3.800425,-3.19784735 1.121783,-8.4943189 5.03411,-5.4168817 2.820785,2.21883029 1.212252,6.3200919 -2.478768,6.3200919 -1.075351,0 -1.776438,-0.247806 -2.555342,-0.9032102 z"
           id="path12" /><rect
           style="fill:#ffffff;fill-opacity:0;stroke:none;stroke-width:0.953985;paint-order:stroke fill markers"
           id="rect17"
           width="177.71916"
           height="177.71916"
           x="-24.011868"
           y="-20.964916" /></g><path
         style="display:inline;fill:#e445b7"
         d="m -16.210264,206.66239 c -2.356897,-0.63454 -3.752974,-1.34562 -5.63546,-2.87037 -3.258647,-2.63941 -4.679053,-6.74711 -4.671072,-13.50839 0.0084,-7.13138 1.369721,-11.2365 4.802854,-14.48342 3.170044,-2.99809 7.864146,-4.37929 12.3006351,-3.61935 7.2068344,1.23448 10.40796091,6.04767 10.40796091,15.64934 0,3.25037 -0.0397769,3.4325 -0.79374992,3.63456 -0.43656246,0.11699 -4.56406209,0.21488 -9.17222139,0.21753 l -8.3784717,0.005 v 1.34708 c 0,3.458 1.764516,6.41154 4.25756,7.12653 2.354238,0.67519 6.5696627,0.20274 9.9157382,-1.11133 1.5457775,-0.60706 2.29799093,-0.11049 3.10663222,2.05079 0.89494046,2.39195 0.69793536,2.72182 -2.47625092,4.14631 -4.1673285,1.87018 -9.8063655,2.45451 -13.6641545,1.4159 z m 8.7382522,-22.57133 c 0,-4.70617 -2.7131132,-7.32622 -6.2053732,-5.99251 -2.040868,0.77941 -3.307803,2.84255 -3.578452,5.82731 l -0.191945,2.11681 h 4.987885 4.9878852 z M 11.754375,206.9775 C 9.8260559,206.74854 6.4785307,206.11757 5.4043758,205.7806 L 4.3460426,205.44859 4.4704331,186.684 c 0.084795,-12.79157 0.00289,-19.16481 -0.2573159,-20.02193 -0.2417065,-0.79619 -0.7725408,-1.47777 -1.4473071,-1.85831 -1.286805,-0.7257 -1.426495,-1.93235 -0.2718507,-2.34825 1.5130784,-0.54501 10.1471776,-1.92607 10.4087226,-1.66492 0.144542,0.14433 0.262804,3.3448 0.262804,7.11217 0,3.76737 0.03418,6.84994 0.07594,6.85016 0.04177,2.2e-4 0.805663,-0.46237 1.697543,-1.02798 4.284032,-2.71685 10.606461,-2.236 13.899594,1.05713 2.571659,2.57166 4.251359,7.94029 4.24043,13.5532 -0.02551,13.10168 -5.521098,19.03014 -17.444066,18.81809 -1.552222,-0.0276 -3.298472,-0.10674 -3.880555,-0.17586 z m 8.648559,-7.11067 c 0.87423,-0.45466 1.534856,-1.24423 2.287551,-2.73403 1.052276,-2.08276 1.058334,-2.12908 1.058334,-8.09197 0,-5.29926 -0.08211,-6.1588 -0.705556,-7.38557 -1.469416,-2.89142 -3.892975,-3.51755 -7.540959,-1.94823 -1.693046,0.72832 -1.80866,0.85875 -1.823558,2.0571 -0.0087,0.70371 -0.102479,5.11624 -0.208289,9.80562 l -0.192381,8.52614 0.825649,0.15707 c 2.154737,0.40989 5.117841,0.22826 6.299209,-0.38613 z m 28.381389,6.8226 c -3.26507,-0.71083 -5.430268,-1.88918 -7.764783,-4.22577 -3.791926,-3.79529 -4.923229,-8.56211 -4.650799,-19.59644 0.188311,-7.62723 0.537226,-9.49749 2.535863,-13.59279 2.996858,-6.14069 8.727491,-9.03033 16.925591,-8.53464 3.356911,0.20298 6.255197,1.06398 8.362985,2.48442 1.391668,0.93784 1.662034,2.02612 1.692248,6.81162 0.02459,3.89518 -0.130682,4.08791 -3.175382,3.94138 -2.48135,-0.11942 -2.482218,-0.1203 -3.202108,-3.27049 -0.390047,-1.70682 -0.695147,-2.24971 -1.608552,-2.86224 -2.105763,-1.41213 -5.487327,-1.35483 -7.488545,0.12689 -2.337392,1.73063 -3.318185,4.41027 -3.932063,10.74283 -0.744219,7.67711 0.125738,15.20616 2.120456,18.35151 2.617338,4.12711 9.297835,4.39571 14.894538,0.59886 2.346708,-1.59203 2.414374,-1.5287 2.40717,2.25303 -0.0071,3.75032 -0.121844,3.97233 -2.684153,5.1952 -4.171682,1.99096 -9.736807,2.59891 -14.432466,1.57663 z m 63.941217,0.15683 c -2.86664,-0.72328 -4.81564,-2.31442 -6.03759,-4.92904 -0.69342,-1.48373 -0.75345,-2.3434 -0.91831,-13.15051 l -0.17638,-11.563 -1.32292,-1.24741 c -1.31922,-1.24392 -1.71825,-2.5036 -0.88195,-2.78417 0.6763,-0.22688 10.6475,-0.80861 10.84792,-0.63287 0.097,0.0851 0.25576,5.73772 0.35278,12.56145 0.15358,10.80244 0.25407,12.54862 0.77711,13.50362 1.24356,2.27057 4.51944,2.43553 7.59168,0.3823 l 1.68537,-1.12636 V 187.69038 177.5205 l -1.32291,-1.21195 c -1.25208,-1.14704 -1.75707,-2.65638 -1.03756,-3.10106 0.15695,-0.097 2.6737,-0.28758 5.59278,-0.42351 4.34557,-0.20235 5.36229,-0.15835 5.61022,0.2428 0.16654,0.26947 0.30885,6.95889 0.31625,14.86537 l 0.0134,14.37542 1.48126,1.35507 c 1.09251,0.99944 1.43148,1.54536 1.29162,2.08019 -0.17853,0.68272 -0.50238,0.73392 -5.53819,0.87553 -3.0572,0.086 -5.53749,0.008 -5.78955,-0.1819 -0.24253,-0.18277 -0.44097,-0.86849 -0.44097,-1.52383 0,-1.3766 -0.32459,-1.49166 -1.26781,-0.44941 -1.54023,1.70194 -3.55172,2.50628 -6.59203,2.636 -1.59493,0.068 -3.50035,-0.0278 -4.23426,-0.21296 z m 36.85074,0.008 c -3.69466,-0.78343 -7.10593,-3.05853 -8.72285,-5.8176 -2.50146,-4.26843 -3.17725,-12.72744 -1.52204,-19.0518 1.06795,-4.0805 4.3988,-7.70054 8.32583,-9.0487 4.43057,-1.52103 11.42184,-0.99992 14.83298,1.1056 l 1.15807,0.71482 -0.0997,3.96692 -0.0997,3.96692 h -2.45271 -2.45271 l -0.6301,-1.76389 c -0.84654,-2.36979 -1.40521,-2.72876 -4.00449,-2.57304 -2.64296,0.15834 -4.01978,1.05766 -5.15819,3.36925 -0.76262,1.54854 -0.82403,2.10702 -0.82403,7.49407 0,5.40185 0.0599,5.94237 0.83148,7.50944 1.25027,2.53914 2.78802,3.42667 5.93715,3.42667 1.85661,0 3.19831,-0.24173 4.94519,-0.89095 1.31851,-0.49002 2.54459,-0.92658 2.72462,-0.97014 0.62381,-0.15092 1.00263,1.74957 0.75068,3.76608 -0.22053,1.76507 -0.39364,2.10683 -1.37076,2.70619 -3.14837,1.9312 -8.54601,2.85833 -12.16866,2.09016 z m -216.660356,-1.14509 c -0.181652,-0.43657 -0.732022,-2.69875 -1.223044,-5.02709 -4.10819,-19.48024 -7.278739,-34.07009 -7.570743,-34.83812 -0.192691,-0.50681 -0.834576,-1.27949 -1.426411,-1.71705 -1.118669,-0.82707 -1.393605,-1.96812 -0.652731,-2.70899 0.299707,-0.29971 2.391049,-0.42334 7.161388,-0.42334 6.959621,0 7.584722,0.12111 7.584722,1.46951 0,0.34256 -0.481424,1.11532 -1.069831,1.71726 -0.875752,0.89588 -1.034659,1.29807 -0.875955,2.21702 0.106631,0.61743 1.128443,6.2026 2.270693,12.41149 1.142251,6.20889 2.189456,12.04295 2.327122,12.96458 0.137667,0.92164 0.354355,1.6757 0.481529,1.6757 0.127174,0 0.672466,-2.10344 1.21176,-4.67431 0.539294,-2.57086 1.426429,-6.73805 1.971412,-9.26041 0.544982,-2.52236 1.576537,-7.36424 2.292344,-10.75972 0.715807,-3.39549 1.449442,-6.5308 1.6303,-6.96737 0.30969,-0.74754 0.53211,-0.79375 3.820976,-0.79375 2.372616,0 3.603898,0.14137 3.840735,0.44098 0.273044,0.3454 3.954119,17.39793 6.187433,28.66319 0.192328,0.97014 0.466018,1.894 0.6082,2.05303 0.233296,0.26094 4.62722,-21.22403 5.160073,-25.23121 0.193122,-1.45232 0.105139,-1.79592 -0.707001,-2.7611 -0.510164,-0.60629 -0.927571,-1.38823 -0.927571,-1.73765 0,-1.28505 0.780619,-1.44959 6.397482,-1.34845 l 5.420573,0.0976 0.116104,1.01655 c 0.091,0.79674 -0.191901,1.33069 -1.308392,2.46944 -1.647541,1.68039 -1.726203,1.93803 -4.105843,13.44735 -2.512959,12.15412 -5.744114,27.10184 -6.005299,27.78125 -0.209581,0.54517 -0.786617,0.61736 -4.934731,0.61736 h -4.697398 l -0.358056,-1.14653 c -0.19693,-0.63059 -1.576944,-6.46465 -3.066696,-12.96458 -1.489753,-6.49993 -2.765952,-11.88047 -2.835999,-11.95675 -0.189769,-0.20665 -0.277666,0.14775 -2.265495,9.13452 -1.008573,4.55966 -2.196589,9.79841 -2.640036,11.64167 -0.443447,1.84326 -0.905904,3.78795 -1.027683,4.32153 l -0.221416,0.97014 h -5.116119 c -4.97256,0 -5.125387,-0.0223 -5.446396,-0.79375 z m 135.459279,0.21584 c 0,-0.31785 0.622748,-1.25351 1.383884,-2.07925 0.997969,-1.08267 1.447168,-1.92987 1.61082,-3.03806 0.326069,-2.20802 0.0506,-33.8733 -0.30102,-34.6025 -0.161836,-0.33563 -0.834121,-0.94389 -1.493966,-1.35169 -0.829332,-0.51256 -1.199718,-1.00487 -1.199718,-1.59464 0,-0.46925 0.09261,-0.85317 0.205799,-0.85317 0.113189,0 2.663206,-0.41332 5.666704,-0.91848 3.003498,-0.50517 5.569951,-0.80914 5.703229,-0.67549 0.133277,0.13364 0.187211,3.32508 0.119854,7.09209 -0.133069,7.44186 -0.129682,7.45349 1.776063,6.09648 0.581326,-0.41394 2.009039,-1.04894 3.172695,-1.41111 5.918417,-1.84202 11.458825,0.34403 13.390593,5.28345 0.729289,1.86475 0.793733,2.73776 0.983169,13.31888 0.213377,11.91835 0.207757,11.87908 1.878421,13.12654 0.33955,0.25354 0.61736,0.84885 0.61736,1.32292 v 0.86194 h -7.055556 -7.055555 v -0.85793 c 0,-0.54833 0.377435,-1.12668 1.045949,-1.6027 0.618573,-0.44046 1.194351,-1.27912 1.409144,-2.05249 0.451435,-1.62543 0.471627,-17.71527 0.02466,-19.65216 -0.199426,-0.8642 -0.764109,-1.80398 -1.456966,-2.42477 -1.058862,-0.94872 -1.280395,-1.00296 -3.458311,-0.84661 -1.401561,0.10062 -2.923238,0.47152 -3.826284,0.93264 l -1.499305,0.76558 v 10.02403 c 0,6.11963 0.143958,10.41085 0.369594,11.01714 0.203277,0.5462 0.93849,1.47709 1.633806,2.06863 1.001253,0.85182 1.212945,1.23706 1.017743,1.85209 -0.243384,0.76683 -0.336632,0.77655 -7.454638,0.77655 -6.442284,0 -7.208171,-0.0614 -7.208171,-0.57791 z m 98.135877,-10e-4 c -0.49864,-0.891 -0.08,-1.86359 1.05466,-2.45036 0.56576,-0.29256 1.18058,-0.93154 1.36628,-1.41995 0.45564,-1.19843 0.44333,-34.49503 -0.0134,-36.11986 -0.22258,-0.79191 -0.72794,-1.45024 -1.40914,-1.83567 -1.36679,-0.77335 -1.53587,-2.62066 -0.26835,-2.93191 0.43656,-0.1072 3.96875,-0.14991 7.8493,-0.0949 l 7.05556,0.1 v 1.22997 c 0,0.99587 -0.18589,1.31906 -0.97667,1.69808 -1.96909,0.94375 -2.04423,1.33724 -1.94051,10.16131 l 0.095,8.07731 5.26522,-7.9375 c 2.89587,-4.36563 5.33416,-8.36956 5.41843,-8.89763 0.12246,-0.76742 -0.0302,-1.04369 -0.76052,-1.37645 -1.09965,-0.50104 -1.45834,-1.43365 -0.93062,-2.4197 0.37561,-0.70184 0.63149,-0.72282 7.69246,-0.63069 l 7.30392,0.0953 0.10622,1.26811 c 0.10105,1.20631 0.0301,1.29716 -1.45531,1.86446 -1.67899,0.64121 -2.96745,2.11092 -9.74391,11.11463 l -3.28856,4.36942 0.78682,1.61949 c 2.04933,4.21816 11.44727,20.43445 12.29503,21.21528 0.52664,0.48507 1.33713,1.12954 1.80108,1.43216 0.67656,0.4413 0.79639,0.7381 0.60534,1.49931 l -0.23821,0.94909 -5.9023,-0.006 -5.90231,-0.006 -4.05694,-7.95923 c -4.64623,-9.11531 -5.15411,-10.02066 -5.62144,-10.02066 -0.18707,0 -1.06253,1.01235 -1.94546,2.24966 l -1.60533,2.24966 v 4.38569 c 0,4.72149 0.0603,4.90744 2.02848,6.25375 1.18911,0.81341 1.45296,1.69981 0.72319,2.42957 -0.30206,0.30206 -2.52042,0.42334 -7.74358,0.42334 -6.4215,0 -7.36005,-0.0711 -7.64442,-0.57928 z"
         id="path16"
         sodipodi:nodetypes="cssssssccsssssccssscccssscsssssssssssssssssscscsssssssssssssssscsscsscsssssscccssssccsssssscccssssscccccsssscssssssssssssssssssssssssssssssscssssscsssssscsssssssssssssssssscccssssssscssssssscsssssscssccssssscssscsssscccssscsssscc" /><path
         style="display:inline;fill:#f5be10"
         d="m 65.773246,250.93651 c -6.511374,-1.63521 -10.803597,-7.49817 -10.803597,-14.75716 0,-9.88677 6.456241,-16.03468 16.272903,-15.49577 3.910474,0.21467 6.261124,1.32027 8.925297,4.1979 1.081127,1.16774 1.965686,2.33013 1.965686,2.58308 0,0.25295 -0.912812,0.96282 -2.028472,1.57749 -1.115659,0.61467 -2.266597,1.28436 -2.557639,1.48819 -0.414053,0.28998 -0.880889,0.0327 -2.146009,-1.1825 -3.888984,-3.73566 -9.651632,-2.84473 -12.060034,1.86452 -1.986344,3.88399 -1.046208,9.84327 1.904399,12.07149 3.100765,2.34163 6.752329,2.08137 9.847978,-0.70188 l 1.806333,-1.62405 1.117417,0.64986 c 2.901493,1.68745 3.763249,2.34153 3.763249,2.85635 0,0.30657 -0.992187,1.54878 -2.20486,2.76047 -2.780832,2.77857 -5.119963,3.75307 -9.436805,3.93146 -1.649236,0.0682 -3.613867,-0.0306 -4.365846,-0.21945 z M 16.869652,235.79712 v -14.82991 h 4.03295 4.03295 l 3.230725,5.79681 c 1.776899,3.18824 3.417684,6.05248 3.646188,6.36498 0.349653,0.47818 0.991184,-0.44005 4.050015,-5.7968 l 3.634551,-6.36499 h 3.855754 3.855753 v 14.82991 14.8299 l -3.263194,-0.10143 -3.263194,-0.10143 v -9.81514 c 0,-6.86112 -0.106174,-9.56554 -0.352778,-8.98581 -0.840013,1.97473 -8.119819,14.03647 -8.412723,13.93884 -0.317891,-0.10597 -5.754123,-9.29129 -7.584487,-12.81512 l -0.936121,-1.80223 v 9.73973 9.73973 l -3.263194,0.10143 -3.263195,0.10143 z m 73.024994,-0.0132 v -14.81667 h 7.54421 c 8.550624,0 10.142084,0.30173 12.574854,2.38409 2.34563,2.00777 2.96882,3.5808 2.96882,7.49369 0,3.77295 -0.55443,5.27718 -2.68406,7.28211 -2.41366,2.27234 -3.86998,2.73772 -9.02674,2.88456 l -4.674307,0.13311 v 4.72789 4.72789 h -3.351389 -3.351388 z m 14.738494,-1.0165 c 1.86346,-0.99729 2.39076,-5.29436 0.83999,-6.84514 -0.84712,-0.84712 -3.03013,-1.18869 -6.494458,-1.01618 l -2.381249,0.11858 v 4.00449 4.00449 l 1.146527,0.16425 c 1.772388,0.2539 6.11776,-0.0176 6.88919,-0.43049 z"
         id="path17"
         sodipodi:nodetypes="ssssssscssscsssssccccssscccccccssssccccccccssssscccccccsscccsc" /></g></g></svg>
